PathFileType	4	(X/Y/Z)	C:/Users/beibeiliu/ov580/test_trc/User1\sequence.9_training_dense_left.trc
DataRate	CameraRate	NumFrames	NumMarkers	Units	OrigDataRate	OrigDataStartFrame	OrigNumFrames
120	120	16	19	mm	120	1	314
Frame#	Time	ThumbCMC			ThumbMCP			ThumbIP			ThumbTip			IndexMCP			IndexPIP			IndexTip			MiddleMCP			MiddlePIP			MiddleTip			RingMCP			RingPIP			RingTip			PinkyMCP			PinkyPIP			PinkyTip			BackHand1			BackHand2			BackHand3	
		X0	Y0	Z0	X1	Y1	Z1	X2	Y2	Z2	X3	Y3	Z3	X4	Y4	Z4	X5	Y5	Z5	X6	Y6	Z6	X7	Y7	Z7	X8	Y8	Z8	X9	Y9	Z9	X10	Y10	Z10	X11	Y11	Z11	X12	Y12	Z12	X13	Y13	Z13	X14	Y14	Z14	X15	Y15	Z15	X16	Y16	Z16	X17	Y17	Z17	X18	Y18	Z18	
0	0	-198.468	121.694	15.0856	-176.957	108.702	2.64498	-153.116	105.342	-11.4934	-132.487	99.3745	-23.0409	-206.587	127.756	-72.5377	-200.707	127.022	-97.3512	-197.741	128.257	-128.348	-231.608	135.149	-83.4572	-230.437	135.738	-112.235	-231.945	133.017	-142.999	-255.321	132.178	-80.5824	-256.587	133.942	-104.021	-259.093	131.351	-130.134	-288.743	120.433	-61.4938	-295.654	118.899	-76.8684	-301.228	123.054	-102.463	-258.286	141.322	-26.9593	-262.643	147.661	11.0235	-226.409	143.174	-7.14289	
1	0.00833333	-199.252	121.465	11.5305	-175.262	109.989	0.819293	-156.774	104.28	-15.2577	-132.726	98.8296	-23.3554	-206.672	128.455	-75.1268	-201.443	128.766	-102.589	-199.326	128.653	-130.493	-230.437	135.674	-86.9432	-229.206	135.94	-110.54	-231.443	133.986	-143.812	-259.77	133.39	-79.8318	-255.666	133.483	-105.499	-258.345	132.092	-136.187	-285.234	120.823	-58.9878	-297.949	119.328	-82.1693	-303.75	124.451	-100.949	-260.851	141.024	-24.3454	-260.977	148.93	7.41456	-225.276	142.506	-9.79091	
2	0.0166667	-199.241	120.648	13.058	-177.425	108.947	2.2532	-151.545	103.895	-16.2336	-136.033	98.0097	-21.0813	-200.521	127.45	-78.1611	-201.257	127.913	-100.788	-195.35	127.787	-126.18	-232.203	136.041	-84.2218	-228.64	135.51	-112.028	-227.572	134.165	-141.908	-254.085	133.081	-77.9075	-255.375	133.518	-110.378	-258.84	131.654	-135.653	-286.322	122.435	-60.4516	-296.555	119.73	-80.4128	-301.427	122.613	-102.399	-260.452	142.19	-25.3169	-259.577	147.526	6.96384	-226.277	142.462	-7.4602	
3	0.025	-194.422	120.761	9.41735	-176.08	108.389	-0.70971	-153.365	103.383	-15.2521	-135.316	97.7766	-19.0481	-202.446	127.839	-77.5185	-195.544	128.741	-102.991	-199.862	128.242	-125.732	-229.121	135.764	-82.3566	-227.947	136.172	-113.867	-229.491	134.776	-142.569	-252.737	133.853	-80.1695	-255.456	134.535	-108.715	-255.853	132.303	-130.278	-280.721	122.306	-59.9022	-291.314	121.661	-81.2426	-300.626	125.669	-101.999	-257.58	141.027	-27.7117	-262.173	148.506	5.78357	-223.452	142.591	-9.96448	
4	0.0333333	-198.804	120.882	12.2963	-173.559	109.012	-1.66613	-151.116	104.096	-12.5984	-131.644	98.4354	-19.2066	-199.555	128.42	-73.721	-197.347	129.1	-98.0842	-194.652	129.29	-124.199	-225.679	137.632	-87.5168	-224.414	135.975	-115.748	-226.249	135.414	-140.652	-256.994	134.288	-79.221	-253.509	135.854	-109.859	-257.296	132.743	-134.842	-286.102	122.437	-60.7468	-289.303	121.424	-80.0117	-300.36	126.06	-101.978	-257.577	143.406	-26.981	-255.683	149.05	5.11068	-223.717	142.351	-9.89424	
5	0.0416667	-197.018	121.142	8.38662	-174.52	109.482	-1.3689	-151.401	104.351	-17.3482	-130.528	98.3854	-20.6604	-198.677	128.15	-72.5288	-199.246	129.268	-102.596	-195.031	129.045	-124.429	-229.605	136.985	-86.872	-224.9	136.675	-112.881	-228.791	135.498	-142.016	-257.257	134.716	-79.1938	-256.491	136.131	-109.526	-258.675	133.337	-131.723	-283.48	123.703	-60.8801	-288.906	121.855	-77.9127	-300.412	124.218	-100.991	-254.323	142.904	-23.1496	-258.089	148.659	7.03751	-220.327	142.218	-8.15823	
6	0.05	-194.901	122.298	8.83203	-172.216	110.13	-1.42027	-154.637	102.963	-14.2504	-133.802	98.1232	-21.8872	-201.939	129.404	-78.6503	-196.358	128.4	-98.6137	-197.128	129.601	-125.541	-230.484	138.076	-87.9403	-224.997	137.282	-111.161	-226.591	137.192	-144.248	-252.545	134.804	-77.6449	-255.084	136.189	-107.137	-254.372	135.17	-135.788	-285.719	124.249	-61.1575	-293.085	122.667	-83.0035	-300.426	126.582	-103.178	-253.658	141.717	-23.296	-259.771	150.067	7.95884	-223.539	145.195	-7.74981	
7	0.0583333	-196.043	121.896	13.4529	-174.21	108.529	1.3448	-149.664	103.944	-15.2109	-130.995	97.5484	-19.2418	-200.43	129.185	-77.0927	-194.441	128.192	-103.13	-197.174	129.784	-125.586	-228.31	137.495	-87.4643	-225.702	136.999	-112.264	-222.904	135.75	-146.833	-251.734	134.928	-79.0936	-256.769	136.084	-107.833	-256.366	134.192	-132.361	-285.702	125.161	-63.8823	-290.521	123.248	-80.0583	-300.298	126.887	-106.14	-258.579	142.628	-23.9084	-259.141	149.529	5.94537	-220.072	144.892	-8.45154	
8	0.0666667	-195.66	120.026	10.733	-173.682	107.266	-1.52597	-153.881	101.743	-15.7488	-130.638	96.3511	-23.6765	-200.122	128.333	-74.4617	-194.931	128.621	-103.73	-190.675	128.601	-129.299	-227.19	137.231	-83.7734	-227.102	137.454	-115.877	-224.797	135.215	-144.345	-252.925	135.165	-80.7559	-255.17	136.105	-107.292	-251.993	133.551	-134.886	-284.263	124.841	-59.2756	-289.747	123.434	-78.9226	-299.952	127.707	-103.538	-255.306	141.284	-25.3616	-259.586	148.629	8.88839	-221.888	142.119	-7.50946	
9	0.075	-197.613	120.307	11.6067	-169.999	107.803	0.700978	-150.179	102.827	-11.7208	-133.908	94.6521	-21.7112	-198.266	127.771	-75.8608	-197.455	128.579	-99.7142	-194.162	129.563	-127.203	-224.745	137.558	-86.3036	-222.185	137.499	-113.547	-223.297	135.073	-143.115	-248.6	135.742	-81.8335	-254.772	137.457	-106.053	-252.504	133.537	-133.688	-279.02	124.907	-60.2561	-291.195	123.549	-81.6241	-297.286	127.034	-103.881	-257.298	142.567	-25.4052	-258.053	149.591	4.39768	-220.285	142.587	-7.05489	
10	0.0833333	-194.379	121.034	9.83586	-171.706	107.977	0.281843	-150.038	101.774	-14.1951	-129.409	95.9193	-20.9111	-199.825	127.801	-77.4714	-193.875	127.904	-100.762	-193.737	129.071	-130.084	-224.942	137.719	-88.3696	-222.179	136.752	-112.876	-225.782	135.82	-143.372	-254.345	135.704	-80.5282	-253.243	137.499	-106.803	-250.767	134.797	-135.427	-278.616	124.912	-61.1774	-289.661	124.463	-81.8589	-296.473	126.892	-103.89	-256.324	142.765	-25.4874	-256.729	148.567	3.11827	-221.302	143.798	-8.86978	
11	0.0916667	-197.588	119.544	12.4437	-169.051	107.879	3.96517	-148.225	101.887	-11.0514	-132.186	94.5587	-20.0695	-196.904	127.315	-76.9312	-192.11	127.648	-102.524	-192.924	128.005	-125.794	-223.917	136.8	-84.9623	-222.726	137.52	-114.494	-222.128	136.394	-146.188	-251.833	134.976	-78.2645	-248.962	136.214	-105.794	-251.968	134.859	-131.533	-277.973	125.261	-66.3166	-286.136	123.576	-80.2141	-298.31	127.509	-104.363	-254.454	144.027	-27.2328	-257.976	150.095	5.05646	-217.533	140.765	-9.65719	
12	0.1	-195.967	120.467	8.63366	-172.777	106.321	0.554493	-147.068	101.284	-10.2761	-128.464	96.4396	-16.3908	-194.639	127.302	-77.2449	-188.893	127.51	-100.511	-189.987	127.782	-123.938	-220.745	136.349	-86.3847	-220.773	136.918	-115.51	-221.978	136.369	-142.092	-251.984	135.233	-79.8809	-246.429	135.836	-108.719	-249.538	134.19	-132.969	-279.384	124.199	-60.9503	-286.633	123.076	-78.9237	-295.584	128.362	-105.534	-249.58	140.654	-28.0177	-254.981	148.523	7.67073	-219.191	140.744	-7.24862	
13	0.108333	-194.565	120.429	12.9642	-167.477	108.863	2.0636	-145.281	103.877	-11.7325	-126.473	97.4882	-17.223	-198.358	128.518	-74.615	-191.218	129.284	-98.187	-188.348	129.726	-127.699	-221.661	138.167	-88.2242	-218.326	137.313	-114.982	-218.665	136.22	-141.638	-248.444	135.299	-82.035	-248.047	135.847	-105.506	-247.786	133.932	-131.685	-276.824	124.912	-66.4004	-288.333	122.504	-84.2587	-293.346	127.646	-105.819	-250.35	140.819	-28.2029	-254.216	150.19	4.86532	-218.661	144.029	-5.59705	
14	0.116667	-192.006	122.797	12.3985	-168.889	110.642	4.95821	-145.026	105.231	-8.32039	-127.241	99.2687	-16.2275	-196.883	128.827	-77.9176	-191.482	128.875	-100.442	-187.611	128.856	-127.175	-220.349	136.536	-85.2961	-216.983	136.24	-113.672	-218.968	135.913	-147.296	-247.552	134.135	-81.4892	-247.502	135.208	-108.375	-246.295	132.071	-131.67	-280.178	123.248	-65.3844	-286.518	122.145	-80.1055	-295.537	126.936	-107.237	-254.177	142.16	-26.255	-253.9	146.893	4.02879	-219.604	143.468	-8.9106	
15	0.125	-191.263	124.495	11.6048	-166.586	113.269	1.85793	-140.93	109.598	-11.9513	-124.625	103.087	-12.8494	-193.66	129.163	-76.4971	-186.217	128.97	-100.398	-187.036	131.278	-129.972	-222.775	136.889	-85.5157	-215.103	136.393	-116.882	-216.574	135.803	-143.807	-248.429	133.162	-80.589	-245.811	133.01	-107.364	-247.712	130.578	-133.594	-279.095	120.751	-64.5144	-283.553	118.885	-82.6516	-290.949	123.106	-107.513	-251.057	139.822	-29.548	-254.404	147.241	3.8454	-216.797	145.562	-11.9412	
